# xmcd
# 
# Track frame offsets:
#     225
#     16412
#     32719
#     49584
#     69369
#     90652
#     103621
#     121067
#     137207
#     147805
#     163901
# 
# Disc length: 2425
# 
# Revision: 0
# Processed by: cddbd v1.5.2PL0 Copyright (c) Steve Scherf et al.
# Submitted via: fre:ac v1.0.27
# 
DISCID=9009760b
DTITLE=Pauline Julien - Fleurs de peau
DYEAR=1980
DGENRE=Chanson
TTITLE0=J'pensais jamais qu'j'pourrais faire ça
TTITLE1=Je cherche mon chemin
TTITLE2=Nouvelles vêpres
TTITLE3=D'un soir
TTITLE4=Peine d'amour minable
TTITLE5=Ce soir je couche chez mon amie d'fille
TTITLE6=Cool
TTITLE7=Je n'irai pas au rendez-vous
TTITLE8=Célébration de la colère
TTITLE9=Deux vieilles
TTITLE10=Reneuve
EXTD=
EXTT0=
EXTT1=
EXTT2=
EXTT3=
EXTT4=
EXTT5=
EXTT6=
EXTT7=
EXTT8=
EXTT9=
EXTT10=
PLAYORDER=
